<?xml version="1.0" encoding="UTF-8"?>
<svg id="_レイヤー_1" data-name="レイヤー_1" xmlns="http://www.w3.org/2000/svg" viewBox="0 0 841.89 595.28">
  <defs>
    <style>
      .cls-1 {
        fill: #00e169;
      }

      .cls-2 {
        fill: #fff;
      }

      .cls-3 {
        fill: #6138ea;
      }
    </style>
  </defs>
  <g>
    <path class="cls-3" d="M604.81,240.94h-5.12c2.97-6.53,1.71-12.64-2.97-18.31h2.89c-5.74-6.95-13.77-13.18-19.19-18.53h2.65c-8.47-8.73-19.51-14.56-30.98-18.33h-2.65c-9.28-3.19-19.42-5.39-29.13-6.67-.37,2.67-.56,4-.93,6.67h2.65c-1.02,7.33-1.98,10.98-2.52,18.33h-2.65c-.55,7.34,2.95,11.11,5.44,18.53h-2.89c1.14,3.39,1.6,5.08,1.18,8.43,5.41,1.49,13.46,4.47,17.21,9.88h5.12c2.98,4.3,2,10.12,2.85,18.14h-1.01c.1.98.17,1.98.17,3.03,0,5.84-1.49,10.91-3.98,15.3h-2.75c-4.75,8.38-12.79,14.28-20.48,18.33h-.6c-4.31,2.27-8.79,3.95-12.93,5.16.75,5.26,1.31,7.9.57,13.16h3.1c-.9,6.42-2.8,9.64-5.44,16.06.33.91.5,1.36.85,2.26h-2.09c2.84,7.33,5.65,11,10.32,18.33h2.16c4.67,7.33,7,11,11.67,18.33h-1.03c4.67,7.33,7,11,11.67,18.33h-2.51c2.46,3.86,3.69,5.79,6.14,9.65,9.79-1.9,14.69-2.85,24.48-4.74-.79-1.96-1.18-2.94-1.97-4.9h2.51c-2.94-7.33-4.42-11-7.36-18.33h1.03c-2.94-7.33-4.42-11-7.36-18.33h-2.16c-2.94-7.33-4.9-11-6.01-18.33h2.09c-.82-5.39-.74-8.09-2.02-13.48,4.2-1.18,8.58-2.81,12.73-4.85h-3.1c8.06-3.59,16.53-10.88,21.29-18.33h.6c3.82-5.38,8.34-11.52,11.87-18.33h2.75c2.94-5.66,5.16-11.79,6.43-18.33h1.01c.78-4.01,3.01-8.13,5.39-12.37,1.1-1.96,2.16-3.88,3.01-5.76Z"/>
    <path class="cls-3" d="M511.2,222.64h-3.9c-2.71-7.42-6.31-11.19-5.98-18.53h3.32c.33-7.34,1.18-11,1.98-18.33h-1.58c.39-3.52.58-5.28.96-8.81-18.34-.46-36.69-.91-55.03-1.37.06,4.07.09,6.1.15,10.17h1.58c.11,7.33-.29,10.98.29,18.33h-3.32c.58,7.34,4.64,11.11,8.25,18.53h3.9c3.61,7.42,3.29,11.08-.37,18.31-3.66,7.23-7.22,10.81-7.12,18.14h-2.15c.11,7.33.16,11,.26,18.33h-3.49c.11,7.33-.3,11,1.66,18.33h5.23c1.95,7.33,3.97,11,4.05,18.33h-1.74c.08,7.33-1.83,11-3.56,18.33h-1.74c-1.73,7.33-1.2,11-1.09,18.33h4.28c.11,7.33.16,11,.26,18.33h-2.54c.11,7.33.16,11,.26,18.33h-1.84c.04,2.67.06,4,.1,6.67,11.13,1.14,16.69,1.71,27.82,2.85l1.04-9.52h1.84c.8-7.33,1.2-11,2.01-18.33h2.54c.8-7.33,1.2-11,2.01-18.33h-4.28c.8-7.33.72-11,3.36-18.33h1.74c2.64-7.33,5.01-11,5.83-18.33h1.74c.83-7.33-.73-11-1.78-18.33h-5.23c-1.05-7.33-.19-11,.61-18.33h3.49c.8-7.33,1.2-11,2.01-18.33h2.15c.8-7.33,4.82-10.9,9.39-18.14,4.57-7.23,5.35-10.89,2.64-18.31Z"/>
    <path class="cls-3" d="M391.83,289.99s-.09-.02-.13-.03c0,.03,0,.05.01.08,0,0,.05-.02.12-.05Z"/>
    <path class="cls-3" d="M431.06,332.38c1.6-6.85,2.16-12.98-.66-18.33h6.67c-4.77-8.25-15.32-15.05-23.97-18.33h-3.94c-5.93-2.52-12.32-4.44-19.22-5.74-.07.03-.12.05-.12.05,0-.03,0-.05-.01-.08.04,0,.09.02.13.03,1.07-.49,9.81-4.48,18.36-12.58h1.9c4.95-4.69,9.76-10.76,12.86-18.33h1.03c2.12-5.18,7-10.96,10.49-17.49.12-.22.21-.43.32-.64h-2.54c3.33-6.58,2.18-12.68-2.3-18.31h2.93c-5.61-7.06-13.45-13.28-18.38-18.53h-3.78c-7.6-8.54-17.6-14.6-28.34-18.33h-.79c-10.95-3.56-22.42-4.6-33.54-4.89-5.09-.13-10.73,0-16.4.52.03,1.75.05,2.62.08,4.36h-2.34c.14,7.33-.24,10.98.38,18.33h3.78c.62,7.34,4.69,11.11,8.34,18.53h-2.93c1.23,2.51,1.78,3.76,2.25,6.25,12.24-1.01,32.19-1.01,38.48,12.06h2.54c1.21,4.33-1.41,9.84-1.89,16.82-.03.45-.05.88-.07,1.31h-1.03c-.36,7.89-3.9,13.92-9.2,18.33h-1.9c-7.73,6.45-20.53,9.85-30.43,9.58.42,3.5.99,5.25,2.19,8.74h3.94c2.33,6.74,4.32,10.12,5.31,16.86,5.76-.14,11.17.38,16.02,1.46h-6.67c9.91,1.93,20.03,7.75,22.29,18.33h6.67c.73,3.17,1.05,6.62,1.21,10.28.12,2.84-.1,5.52-.65,8.05h-.29c-1.7,7.88-6.62,14.19-14.8,18.33h-3.67c-10.93,5.28-23.66,6.15-35.6,5.3.1,5.21.15,7.82.26,13.03h1.92c.07,3.78.11,5.67.19,9.44,4.78,0,9.06.09,12.66,0,15.65-.39,31.15-2.7,45.93-9.44h-1.92c9.08-3.91,18.85-10.79,25.32-18.33h3.67c4.95-5.56,8.71-11.74,11.13-18.33h.29c2.05-5.58,2.87-11.45,4.3-17.49.07-.28.12-.55.18-.83h-6.67Z"/>
    <path class="cls-3" d="M328.75,350.71h-7.05c-.33-7.33-.98-11,.53-18.33h3.01c1.5-7.33,3.31-11,3-18.33h-1.3c-.31-7.33-2.43-11-4.61-18.33h3.42c-2.18-7.33-1.89-11-2.22-18.33h-7.24c-.33-7.33-.5-11-.83-18.33h5.54c-.33-7.33,3.12-10.9,6.55-18.14h3.82c3.43-7.23,3.65-10.89-.19-18.31h-6.01c-3.84-7.42-8.01-11.19-8.81-18.53h1.77c-.81-7.34-.52-11-.85-18.33-.07-1.54-.1-2.32-.17-3.86-9.46,1.29-18.92,2.57-28.38,3.86-9.35,1.27-18.7,2.54-28.05,3.82,1.08,5.8,1.27,8.7,2.73,14.51h-1.77c1.84,7.34,6.53,11.11,11.41,18.53h6.01c4.88,7.42,5.18,11.08,2.79,18.31h-3.82c-2.4,7.23-5.33,10.81-3.96,18.14h-5.54c1.37,7.33,2.05,11,3.42,18.33h7.24c1.37,7.33,1.6,11,4.81,18.33h-3.42c3.22,7.33,5.86,11,7.2,18.33h1.3c1.34,7.33.06,11-.41,18.33h-3.01c-.47,7.33.7,11,2.06,18.33h7.05c1.37,7.33,2.05,11,3.42,18.33h-7.46c1.37,7.33,2.05,11,3.42,18.33h3.42c.52,2.78.78,4.17,1.3,6.95,9.31.79,18.62,1.58,27.94,2.37-.17-3.73-.25-5.59-.42-9.32h-3.42c-.33-7.33-.5-11-.83-18.33h7.46c-.33-7.33-.5-11-.83-18.33Z"/>
    <path class="cls-3" d="M573.82,383.46h2.89v3.9h-.47v3.62h2.09v-3.62h.47v-3.9h2.89v-1.93h-7.88v1.93Z"/>
    <path class="cls-3" d="M588.13,385.51c-1-1.59-1.5-2.39-2.49-3.98h-2.25v5.83h-.28v3.62h2.05v-3.62h.28v-2.49c.67,1,1,1.5,1.66,2.49h-.28c.4.59.59.89.99,1.49h.04c.4-.59.6-.89,1-1.49h.28c.68-1.01,1.02-1.52,1.7-2.53v2.53h-.28v3.62h2.05v-3.62h.28v-5.83h-2.25c-1,1.59-1.5,2.39-2.49,3.98Z"/>
  </g>
  <g>
    <path class="cls-1" d="M590.64,240.94h-5.12c2.97-6.53,1.71-12.64-2.97-18.31h2.89c-5.74-6.95-13.77-13.18-19.19-18.53h2.65c-8.47-8.73-19.51-14.56-30.98-18.33h-2.65c-9.28-3.19-19.42-5.39-29.13-6.67-.37,2.67-.56,4-.93,6.67h2.65c-1.02,7.33-1.98,10.98-2.52,18.33h-2.65c-.55,7.34,2.95,11.11,5.44,18.53h-2.89c1.14,3.39,1.6,5.08,1.18,8.43,5.41,1.49,13.46,4.47,17.21,9.88h5.12c2.98,4.3,2,10.12,2.85,18.14h-1.01c.1.98.17,1.98.17,3.03,0,5.84-1.49,10.91-3.98,15.3h-2.75c-4.75,8.38-12.79,14.28-20.48,18.33h-.6c-4.31,2.27-8.79,3.95-12.93,5.16.75,5.26,1.31,7.9.57,13.16h3.1c-.9,6.42-2.8,9.64-5.44,16.06.33.91.5,1.36.85,2.26h-2.09c2.84,7.33,5.65,11,10.32,18.33h2.16c4.67,7.33,7,11,11.67,18.33h-1.03c4.67,7.33,7,11,11.67,18.33h-2.51c2.46,3.86,3.69,5.79,6.14,9.65,9.79-1.9,14.69-2.85,24.48-4.74-.79-1.96-1.18-2.94-1.97-4.9h2.51c-2.94-7.33-4.42-11-7.36-18.33h1.03c-2.94-7.33-4.42-11-7.36-18.33h-2.16c-2.94-7.33-4.9-11-6.01-18.33h2.09c-.82-5.39-.74-8.09-2.02-13.48,4.2-1.18,8.58-2.81,12.73-4.85h-3.1c8.06-3.59,16.53-10.88,21.29-18.33h.6c3.82-5.38,8.34-11.52,11.87-18.33h2.75c2.94-5.66,5.16-11.79,6.43-18.33h1.01c.78-4.01,3.01-8.13,5.39-12.37,1.1-1.96,2.16-3.88,3.01-5.76Z"/>
    <path class="cls-1" d="M497.03,222.64h-3.9c-2.71-7.42-6.31-11.19-5.98-18.53h3.32c.33-7.34,1.18-11,1.98-18.33h-1.58c.39-3.52.58-5.28.96-8.81-18.34-.46-36.69-.91-55.03-1.37.06,4.07.09,6.1.15,10.17h1.58c.11,7.33-.29,10.98.29,18.33h-3.32c.58,7.34,4.64,11.11,8.25,18.53h3.9c3.61,7.42,3.29,11.08-.37,18.31-3.66,7.23-7.22,10.81-7.12,18.14h-2.15c.11,7.33.16,11,.26,18.33h-3.49c.11,7.33-.3,11,1.66,18.33h5.23c1.95,7.33,3.97,11,4.05,18.33h-1.74c.08,7.33-1.83,11-3.56,18.33h-1.74c-1.73,7.33-1.2,11-1.09,18.33h4.28c.11,7.33.16,11,.26,18.33h-2.54c.11,7.33.16,11,.26,18.33h-1.84c.04,2.67.06,4,.1,6.67,11.13,1.14,16.69,1.71,27.82,2.85l1.04-9.52h1.84c.8-7.33,1.2-11,2.01-18.33h2.54c.8-7.33,1.2-11,2.01-18.33h-4.28c.8-7.33.72-11,3.36-18.33h1.74c2.64-7.33,5.01-11,5.83-18.33h1.74c.83-7.33-.73-11-1.78-18.33h-5.23c-1.05-7.33-.19-11,.61-18.33h3.49c.8-7.33,1.2-11,2.01-18.33h2.15c.8-7.33,4.82-10.9,9.39-18.14,4.57-7.23,5.35-10.89,2.64-18.31Z"/>
    <path class="cls-1" d="M377.66,289.99s-.09-.02-.13-.03c0,.03,0,.05.01.08,0,0,.05-.02.12-.05Z"/>
    <path class="cls-1" d="M416.88,332.38c1.6-6.85,2.16-12.98-.66-18.33h6.67c-4.77-8.25-15.32-15.05-23.97-18.33h-3.94c-5.93-2.52-12.32-4.44-19.22-5.74-.07.03-.12.05-.12.05,0-.03,0-.05-.01-.08.04,0,.09.02.13.03,1.07-.49,9.81-4.48,18.36-12.58h1.9c4.95-4.69,9.76-10.76,12.86-18.33h1.03c2.12-5.18,7-10.96,10.49-17.49.12-.22.21-.43.32-.64h-2.54c3.33-6.58,2.18-12.68-2.3-18.31h2.93c-5.61-7.06-13.45-13.28-18.38-18.53h-3.78c-7.6-8.54-17.6-14.6-28.34-18.33h-.79c-10.95-3.56-22.42-4.6-33.54-4.89-5.09-.13-10.73,0-16.4.52.03,1.75.05,2.62.08,4.36h-2.34c.14,7.33-.24,10.98.38,18.33h3.78c.62,7.34,4.69,11.11,8.34,18.53h-2.93c1.23,2.51,1.78,3.76,2.25,6.25,12.24-1.01,32.19-1.01,38.48,12.06h2.54c1.21,4.33-1.41,9.84-1.89,16.82-.03.45-.05.88-.07,1.31h-1.03c-.36,7.89-3.9,13.92-9.2,18.33h-1.9c-7.73,6.45-20.53,9.85-30.43,9.58.42,3.5.99,5.25,2.19,8.74h3.94c2.33,6.74,4.32,10.12,5.31,16.86,5.76-.14,11.17.38,16.02,1.46h-6.67c9.91,1.93,20.03,7.75,22.29,18.33h6.67c.73,3.17,1.05,6.62,1.21,10.28.12,2.84-.1,5.52-.65,8.05h-.29c-1.7,7.88-6.62,14.19-14.8,18.33h-3.67c-10.93,5.28-23.66,6.15-35.6,5.3.1,5.21.15,7.82.26,13.03h1.92c.07,3.78.11,5.67.19,9.44,4.78,0,9.06.09,12.66,0,15.65-.39,31.15-2.7,45.93-9.44h-1.92c9.08-3.91,18.85-10.79,25.32-18.33h3.67c4.95-5.56,8.71-11.74,11.13-18.33h.29c2.05-5.58,2.87-11.45,4.3-17.49.07-.28.12-.55.18-.83h-6.67Z"/>
    <path class="cls-1" d="M314.57,350.71h-7.05c-.33-7.33-.98-11,.53-18.33h3.01c1.5-7.33,3.31-11,3-18.33h-1.3c-.31-7.33-2.43-11-4.61-18.33h3.42c-2.18-7.33-1.89-11-2.22-18.33h-7.24c-.33-7.33-.5-11-.83-18.33h5.54c-.33-7.33,3.12-10.9,6.55-18.14h3.82c3.43-7.23,3.65-10.89-.19-18.31h-6.01c-3.84-7.42-8.01-11.19-8.81-18.53h1.77c-.81-7.34-.52-11-.85-18.33-.07-1.54-.1-2.32-.17-3.86-9.46,1.29-18.92,2.57-28.38,3.86-9.35,1.27-18.7,2.54-28.05,3.82,1.08,5.8,1.27,8.7,2.73,14.51h-1.77c1.84,7.34,6.53,11.11,11.41,18.53h6.01c4.88,7.42,5.18,11.08,2.79,18.31h-3.82c-2.4,7.23-5.33,10.81-3.96,18.14h-5.54c1.37,7.33,2.05,11,3.42,18.33h7.24c1.37,7.33,1.6,11,4.81,18.33h-3.42c3.22,7.33,5.86,11,7.2,18.33h1.3c1.34,7.33.06,11-.41,18.33h-3.01c-.47,7.33.7,11,2.06,18.33h7.05c1.37,7.33,2.05,11,3.42,18.33h-7.46c1.37,7.33,2.05,11,3.42,18.33h3.42c.52,2.78.78,4.17,1.3,6.95,9.31.79,18.62,1.58,27.94,2.37-.17-3.73-.25-5.59-.42-9.32h-3.42c-.33-7.33-.5-11-.83-18.33h7.46c-.33-7.33-.5-11-.83-18.33Z"/>
    <path class="cls-1" d="M559.65,383.46h2.89v3.9h-.47v3.62h2.09v-3.62h.47v-3.9h2.89v-1.93h-7.88v1.93Z"/>
    <path class="cls-1" d="M573.96,385.51c-1-1.59-1.5-2.39-2.49-3.98h-2.25v5.83h-.28v3.62h2.05v-3.62h.28v-2.49c.67,1,1,1.5,1.66,2.49h-.28c.4.59.59.89.99,1.49h.04c.4-.59.6-.89,1-1.49h.28c.68-1.01,1.02-1.52,1.7-2.53v2.53h-.28v3.62h2.05v-3.62h.28v-5.83h-2.25c-1,1.59-1.5,2.39-2.49,3.98Z"/>
  </g>
  <g>
    <path class="cls-2" d="M597.73,240.94h-5.12c2.97-6.53,1.71-12.64-2.97-18.31h2.89c-5.74-6.95-13.77-13.18-19.19-18.53h2.65c-8.47-8.73-19.51-14.56-30.98-18.33h-2.65c-9.28-3.19-19.42-5.39-29.13-6.67-.37,2.67-.56,4-.93,6.67h2.65c-1.02,7.33-1.98,10.98-2.52,18.33h-2.65c-.55,7.34,2.95,11.11,5.44,18.53h-2.89c1.14,3.39,1.6,5.08,1.18,8.43,5.41,1.49,13.46,4.47,17.21,9.88h5.12c2.98,4.3,2,10.12,2.85,18.14h-1.01c.1.98.17,1.98.17,3.03,0,5.84-1.49,10.91-3.98,15.3h-2.75c-4.75,8.38-12.79,14.28-20.48,18.33h-.6c-4.31,2.27-8.79,3.95-12.93,5.16.75,5.26,1.31,7.9.57,13.16h3.1c-.9,6.42-2.8,9.64-5.44,16.06.33.91.5,1.36.85,2.26h-2.09c2.84,7.33,5.65,11,10.32,18.33h2.16c4.67,7.33,7,11,11.67,18.33h-1.03c4.67,7.33,7,11,11.67,18.33h-2.51c2.46,3.86,3.69,5.79,6.14,9.65,9.79-1.9,14.69-2.85,24.48-4.74-.79-1.96-1.18-2.94-1.97-4.9h2.51c-2.94-7.33-4.42-11-7.36-18.33h1.03c-2.94-7.33-4.42-11-7.36-18.33h-2.16c-2.94-7.33-4.9-11-6.01-18.33h2.09c-.82-5.39-.74-8.09-2.02-13.48,4.2-1.18,8.58-2.81,12.73-4.85h-3.1c8.06-3.59,16.53-10.88,21.29-18.33h.6c3.82-5.38,8.34-11.52,11.87-18.33h2.75c2.94-5.66,5.16-11.79,6.43-18.33h1.01c.78-4.01,3.01-8.13,5.39-12.37,1.1-1.96,2.16-3.88,3.01-5.76Z"/>
    <path class="cls-2" d="M504.11,222.64h-3.9c-2.71-7.42-6.31-11.19-5.98-18.53h3.32c.33-7.34,1.18-11,1.98-18.33h-1.58c.39-3.52.58-5.28.96-8.81-18.34-.46-36.69-.91-55.03-1.37.06,4.07.09,6.1.15,10.17h1.58c.11,7.33-.29,10.98.29,18.33h-3.32c.58,7.34,4.64,11.11,8.25,18.53h3.9c3.61,7.42,3.29,11.08-.37,18.31-3.66,7.23-7.22,10.81-7.12,18.14h-2.15c.11,7.33.16,11,.26,18.33h-3.49c.11,7.33-.3,11,1.66,18.33h5.23c1.95,7.33,3.97,11,4.05,18.33h-1.74c.08,7.33-1.83,11-3.56,18.33h-1.74c-1.73,7.33-1.2,11-1.09,18.33h4.28c.11,7.33.16,11,.26,18.33h-2.54c.11,7.33.16,11,.26,18.33h-1.84c.04,2.67.06,4,.1,6.67,11.13,1.14,16.69,1.71,27.82,2.85l1.04-9.52h1.84c.8-7.33,1.2-11,2.01-18.33h2.54c.8-7.33,1.2-11,2.01-18.33h-4.28c.8-7.33.72-11,3.36-18.33h1.74c2.64-7.33,5.01-11,5.83-18.33h1.74c.83-7.33-.73-11-1.78-18.33h-5.23c-1.05-7.33-.19-11,.61-18.33h3.49c.8-7.33,1.2-11,2.01-18.33h2.15c.8-7.33,4.82-10.9,9.39-18.14,4.57-7.23,5.35-10.89,2.64-18.31Z"/>
    <path class="cls-2" d="M384.75,289.99s-.09-.02-.13-.03c0,.03,0,.05.01.08,0,0,.05-.02.12-.05Z"/>
    <path class="cls-2" d="M423.97,332.38c1.6-6.85,2.16-12.98-.66-18.33h6.67c-4.77-8.25-15.32-15.05-23.97-18.33h-3.94c-5.93-2.52-12.32-4.44-19.22-5.74-.07.03-.12.05-.12.05,0-.03,0-.05-.01-.08.04,0,.09.02.13.03,1.07-.49,9.81-4.48,18.36-12.58h1.9c4.95-4.69,9.76-10.76,12.86-18.33h1.03c2.12-5.18,7-10.96,10.49-17.49.12-.22.21-.43.32-.64h-2.54c3.33-6.58,2.18-12.68-2.3-18.31h2.93c-5.61-7.06-13.45-13.28-18.38-18.53h-3.78c-7.6-8.54-17.6-14.6-28.34-18.33h-.79c-10.95-3.56-22.42-4.6-33.54-4.89-5.09-.13-10.73,0-16.4.52.03,1.75.05,2.62.08,4.36h-2.34c.14,7.33-.24,10.98.38,18.33h3.78c.62,7.34,4.69,11.11,8.34,18.53h-2.93c1.23,2.51,1.78,3.76,2.25,6.25,12.24-1.01,32.19-1.01,38.48,12.06h2.54c1.21,4.33-1.41,9.84-1.89,16.82-.03.45-.05.88-.07,1.31h-1.03c-.36,7.89-3.9,13.92-9.2,18.33h-1.9c-7.73,6.45-20.53,9.85-30.43,9.58.42,3.5.99,5.25,2.19,8.74h3.94c2.33,6.74,4.32,10.12,5.31,16.86,5.76-.14,11.17.38,16.02,1.46h-6.67c9.91,1.93,20.03,7.75,22.29,18.33h6.67c.73,3.17,1.05,6.62,1.21,10.28.12,2.84-.1,5.52-.65,8.05h-.29c-1.7,7.88-6.62,14.19-14.8,18.33h-3.67c-10.93,5.28-23.66,6.15-35.6,5.3.1,5.21.15,7.82.26,13.03h1.92c.07,3.78.11,5.67.19,9.44,4.78,0,9.06.09,12.66,0,15.65-.39,31.15-2.7,45.93-9.44h-1.92c9.08-3.91,18.85-10.79,25.32-18.33h3.67c4.95-5.56,8.71-11.74,11.13-18.33h.29c2.05-5.58,2.87-11.45,4.3-17.49.07-.28.12-.55.18-.83h-6.67Z"/>
    <path class="cls-2" d="M321.66,350.71h-7.05c-.33-7.33-.98-11,.53-18.33h3.01c1.5-7.33,3.31-11,3-18.33h-1.3c-.31-7.33-2.43-11-4.61-18.33h3.42c-2.18-7.33-1.89-11-2.22-18.33h-7.24c-.33-7.33-.5-11-.83-18.33h5.54c-.33-7.33,3.12-10.9,6.55-18.14h3.82c3.43-7.23,3.65-10.89-.19-18.31h-6.01c-3.84-7.42-8.01-11.19-8.81-18.53h1.77c-.81-7.34-.52-11-.85-18.33-.07-1.54-.1-2.32-.17-3.86-9.46,1.29-18.92,2.57-28.38,3.86-9.35,1.27-18.7,2.54-28.05,3.82,1.08,5.8,1.27,8.7,2.73,14.51h-1.77c1.84,7.34,6.53,11.11,11.41,18.53h6.01c4.88,7.42,5.18,11.08,2.79,18.31h-3.82c-2.4,7.23-5.33,10.81-3.96,18.14h-5.54c1.37,7.33,2.05,11,3.42,18.33h7.24c1.37,7.33,1.6,11,4.81,18.33h-3.42c3.22,7.33,5.86,11,7.2,18.33h1.3c1.34,7.33.06,11-.41,18.33h-3.01c-.47,7.33.7,11,2.06,18.33h7.05c1.37,7.33,2.05,11,3.42,18.33h-7.46c1.37,7.33,2.05,11,3.42,18.33h3.42c.52,2.78.78,4.17,1.3,6.95,9.31.79,18.62,1.58,27.94,2.37-.17-3.73-.25-5.59-.42-9.32h-3.42c-.33-7.33-.5-11-.83-18.33h7.46c-.33-7.33-.5-11-.83-18.33Z"/>
    <path class="cls-2" d="M566.73,383.46h2.89v3.9h-.47v3.62h2.09v-3.62h.47v-3.9h2.89v-1.93h-7.88v1.93Z"/>
    <path class="cls-2" d="M581.04,385.51c-1-1.59-1.5-2.39-2.49-3.98h-2.25v5.83h-.28v3.62h2.05v-3.62h.28v-2.49c.67,1,1,1.5,1.66,2.49h-.28c.4.59.59.89.99,1.49h.04c.4-.59.6-.89,1-1.49h.28c.68-1.01,1.02-1.52,1.7-2.53v2.53h-.28v3.62h2.05v-3.62h.28v-5.83h-2.25c-1,1.59-1.5,2.39-2.49,3.98Z"/>
  </g>
</svg>